<svg enable-background="new 0 0 87.8 95" viewBox="0 0 87.8 95" xmlns="http://www.w3.org/2000/svg"><path d="m47.1 78.1c6.4-11.3 12.1-23.3 12.1-36.2-2.4 8.9-6.4 19.3-10.5 27.4 0 .8-.8 2.4-1.6 3.2z" fill="none"/><path d="m34.9 37.8c-.3-.5-.6-1-1-1.4-5.7-8.3-13.4-14.8-24.8-17.9-16.8 32.1 9.8 65.4 33.1 74.4-22.5-18.3-25.1-59-22.5-46.7 2.2 10.8 18.2 37.8 23.1 46 .2-.7.4-1.4.6-2.1 4.8-17.1 1.5-37.1-8.5-52.3z" fill="#42836b"/><path d="m78.5 1.6c-23 7.9-35 21.3-41.6 34.8.3.5.6 1 1 1.4 6.8 10.3 10.5 22.8 10.7 35.1 6.6-11.5 15.6-28 17.2-35.8 2.3-11.3.4 22.1-17.4 41.8-.3 3.8-.9 7.5-1.9 11.2 18.3-9.8 54.6-37.8 32-88.5z" fill="#364558"/></svg>