<svg enable-background="new 0 0 35.9 11.5" viewBox="0 0 35.9 11.5" xmlns="http://www.w3.org/2000/svg"><path d="m35 0c-2.9 1-4.4 2.7-5.2 4.5.2.3.4.5.5.8.6 1.4.7 2.8.6 4 .1-.3.3-.6.4-.9.3-.5.5-1.1.7-1.7s.5-1.1.6-1.7c0 .6-.1 1.2-.3 1.8s-.4 1.2-.7 1.7c-.3.6-.5 1.1-.9 1.6 0 .1-.1.1-.1.2-.1.4-.2.7-.2 1 2.1-.9 7.7-4.5 4.6-11.3z" fill="#364558"/><path d="m28.5 9.3c-.2-.5-.4-1-.5-1.5s-.2-1-.2-1.6c.2.5.4 1 .6 1.4.2.5.4.9.6 1.4l.6 1.4c.2.3.3.7.4 1 .3-.9.9-3.6-.2-6-.7-1.5-2-2.6-3.9-3.3-.8 1.8-.9 3.6-.3 5.1.9 2.4 3.3 3.8 4.2 4.2-.2-.3-.4-.6-.6-.9s-.4-.8-.7-1.2z" fill="#42836b"/><path d="m0 2.2h1.8v7.1h4.3v1.6h-6.1z"/><path d="m11.4 4.6c.4.2.8.5 1.1.9s.4.8.5 1.3v1.3h-4.6c0 .6.2 1.1.7 1.3.2.2.5.3.9.3s.7-.1.9-.3c.1-.1.2-.2.3-.4h1.7c0 .4-.3.8-.6 1.2-.6.6-1.4.9-2.4.9-.9 0-1.6-.3-2.2-.8s-1-1.4-1-2.6c0-1.1.3-2 .9-2.5.6-.6 1.3-.9 2.3-.9.5 0 1 .1 1.5.3zm-2.5 1.4c-.3.3-.4.6-.5 1h2.9c0-.4-.2-.8-.4-1s-.6-.3-1-.3c-.5 0-.8.1-1 .3z"/><path d="m16.4 7c.3 0 .5-.1.7-.1.2-.1.4-.3.4-.5 0-.3-.1-.4-.3-.5s-.5-.1-.8-.1c-.4 0-.7.1-.8.3-.1.1-.2.3-.2.6h-1.6c0-.6.2-1 .5-1.4.4-.6 1.2-.8 2.3-.8.7 0 1.3.1 1.9.4s.8.8.8 1.6v2.9.7c0 .2 0 .4.1.4s.1.1.2.2v.2h-1.8c-.1-.1-.1-.2-.1-.4s0-.2 0-.4c-.2.2-.5.5-.8.6-.4.2-.8.3-1.2.3-.6 0-1.1-.2-1.4-.5-.4-.3-.6-.8-.6-1.4 0-.8.3-1.4.9-1.7.3-.2.8-.3 1.5-.4zm1 .8c-.1.1-.2.1-.3.2s-.3 0-.5 0l-.4.1c-.4.1-.6.1-.8.2-.3.2-.4.4-.4.7s.1.5.2.6c.2.1.4.2.6.2.4 0 .7-.1 1-.3s.5-.6.5-1.2v-.5z"/><path d="m23.2 2.1h.4v1.4c-.1 0-.3 0-.5 0s-.4 0-.5.1-.1.3-.1.4 0 .3 0 .5h1.1v1.2h-1.1v5.2h-1.7v-5.2h-.9v-1.2h.9v-.4c0-.7.1-1.2.3-1.4.2-.4.8-.6 1.8-.6z"/></svg>