<svg enable-background="new 0 0 178.1 403" viewBox="0 0 178.1 403" xmlns="http://www.w3.org/2000/svg"><g fill="#a0df93"><path d="m76.5 266.4s-24.1-10.6-47.8-4.8-24.3 17.3-24.3 17.3 27.4 17.4 72.1-12.5z"/><path d="m158 69.1c-17.6-9.7-38.4-8.7-45.1-8.1 9.8-30.6 17.9-60.4 18-60.6l-.9-.4c-.1.1-8.1 29.8-17.9 60.4-5.6-2.1-26.1-9-46.3-4-23.7 5.9-24.2 17.4-24.2 17.4s26.6 16.6 69.9-11.5c-2.9 9-5.9 17.9-8.9 26.2-6.4-2.4-26.2-8.6-45.6-3.7-23.8 5.8-24.4 17.3-24.4 17.3s26.2 16.3 68.8-10.8c-3.2 8.6-6.3 16.3-9.3 22.2-.1.3-.3.6-.4.9-4.1-1.2-26.6-7.1-47.3.3-23 8.2-22.4 19.7-22.4 19.7s28.4 14.1 69.1-18.8c-3.3 7.2-6.1 15.7-8.3 25.2-3.5-1.1-26.4-7.3-47.5.2-23 8.2-22.4 19.7-22.4 19.7s28.7 14.4 69.8-19.2c-2.4 10-4.2 20.9-5.5 32.2-5.2-1.5-26.8-6.7-46.8.4-23 8.1-22.4 19.7-22.4 19.7s28.4 14.2 69-18.6c-1 9.1-1.7 18.5-2.1 27.8-2.6-.8-26.1-7.5-47.8.2-23 8.2-22.4 19.7-22.4 19.7s28.9 14.5 70.1-19.5c-.5 12-.4 23.8.1 34.9-6.5-2.4-26.2-8.6-45.5-3.9-23.6 5.6-24.3 17.1-24.3 17.1s26.5 16.8 69.9-11.1c.3 4.9.7 9.7 1.2 14.2.4 3.8.6 7.5.6 11.1-.2-.1-.3-.1-.4-.2 0 0 .1.7.4 2-.2 8.5-1.4 16.4-3.3 23.4-3.9-1.6-25.7-9.8-47.1-4.5-23.7 5.8-24.3 17.3-24.3 17.3s27.1 17.2 71.2-11.9c-2.1 7.7-4.9 14.3-7.6 19.8-4.4-.4-27.5-1.8-46.3 9.4-21 12.4-18.2 23.6-18.2 23.6s30 8.3 63.2-30.4c-4.9 9.1-9.4 14.2-9.5 14.3l.5.4c-.4.4-24.3 23.7-30 35.4-6 11.7-8.6 38.7-8.6 38.7s24-20.1 33.8-40.1c9.4-19.4 5-33 4.7-33.9l.2.2c.1-.1 5.6-6.3 11.1-17.2-2 7-6.7 26.6-.8 45.4 7.3 23.2 18.9 23.1 18.9 23.1s15.5-28.3-16.9-70.7c2.6-5.3 5-11.7 6.9-18.9-.1 3.8-.1 27.4 12.5 45.9 13.8 20.1 24.8 16.6 24.8 16.6s6.5-31.7-37.2-62.9c1.5-5.9 2.6-12.3 3-19.3 2.4 8.5 8.3 25.2 21.2 37 17.9 16.5 27.9 10.6 27.9 10.6s-.7-31.8-48.9-52.4c0-3.8-.1-7.6-.6-11.6-.5-4.7-.9-9.6-1.2-14.8.3-.2.7-.5 1-.7 2.4 6.7 10.4 25.5 26.4 37.1 19.7 14.3 28.9 7.3 28.9 7.3s-4.4-32.2-56.1-46.9c0 0 .2.8.8 2.2-.2-.1-.6-.2-1-.4-.6-11.2-.6-23.2-.2-35.3 1.5 4.4 9.3 25.9 27 38.7 19.7 14.3 28.9 7.3 28.9 7.3s-4.4-32-55.8-46.8c.4-9.3 1.1-18.7 2.2-27.9 2.2 6.2 10.2 25.7 26.6 37.6 19.7 14.3 28.9 7.3 28.9 7.3s-4.4-31.8-55.2-46.6c1.3-10.6 3-20.8 5.2-30.1 1.8 5.4 9.8 25.8 26.8 38.2 19.7 14.3 28.9 7.3 28.9 7.3s-4.4-31.9-55.4-46.7c2.2-9.2 4.9-17.6 8-24.7 2.1 7.1 10.1 25.3 25.7 36.7 19.7 14.3 28.9 7.3 28.9 7.3s-4.3-31.3-54-46.3c.1-.2.2-.5.3-.7 3.1-6.2 6.4-14.4 9.7-23.5.1-.1.2-.1.3-.2 33.1 40.4 63.7 32.5 63.7 32.5s2.9-11.1-17.9-23.9c-17.8-10.9-39.7-10.4-45.4-10 0 0 0 0-.1 0 3-8.1 5.9-17 8.8-25.8 34.7 38.4 64.7 29.1 64.7 29.1s2.5-11.2-18.8-23z"/></g></svg>