<?xml version="1.0" encoding="utf-8"?>
<!-- Generator: Adobe Illustrator 24.0.3, SVG Export Plug-In . SVG Version: 6.00 Build 0)  -->
<svg version="1.1" id="Layer_1" xmlns="http://www.w3.org/2000/svg" xmlns:xlink="http://www.w3.org/1999/xlink" x="0px" y="0px"
	 viewBox="0 0 170.6 257.3" style="enable-background:new 0 0 170.6 257.3;" xml:space="preserve">
<style type="text/css">
	.st0{fill:#42836B;}
</style>
<g>
	<g>
		<path class="st0" d="M63.5,26.2c0,0-20.5-7.7-40.8-2.5C2.5,29,1.8,38,1.8,38S25.1,51,63.5,26.2z"/>
	</g>
</g>
<g>
	<g>
		<path class="st0" d="M124.8,33c0,0-1.4-9-22.1-12.4c-20.7-3.3-40.4,6.1-40.4,6.1C102.9,48,124.8,33,124.8,33z"/>
	</g>
</g>
<g>
	<g>
		<path class="st0" d="M127.5,54.5c0,0-1.4-9-22.1-12.4C84.7,38.8,65,48.3,65,48.3C105.5,69.6,127.5,54.5,127.5,54.5z"/>
	</g>
</g>
<g>
	<g>
		<path class="st0" d="M131.5,79.2c0,0-1.1-9-21.7-13.1c-20.6-4-40.6,4.7-40.6,4.7C109,93.5,131.5,79.2,131.5,79.2z"/>
	</g>
</g>
<g>
	<g>
		<path class="st0" d="M138.1,103.4c0,0-0.9-9-21.3-13.7c-20.4-4.6-40.7,3.6-40.7,3.6C115.2,117,138.1,103.4,138.1,103.4z"/>
	</g>
</g>
<g>
	<g>
		<path class="st0" d="M147.1,124.9c0,0-0.9-9-21.3-13.7c-20.4-4.6-40.7,3.6-40.7,3.6C124.2,138.6,147.1,124.9,147.1,124.9z"/>
	</g>
</g>
<g>
	<g>
		<path class="st0" d="M156.3,154.2c0,0,0.3-9.1-19.3-16.4c-19.7-7.3-40.8-1.8-40.8-1.8C131.8,164.6,156.3,154.2,156.3,154.2z"/>
	</g>
</g>
<g>
	<g>
		<path class="st0" d="M167.1,185.4c0,0,0.3-9.1-19.3-16.4c-19.7-7.3-40.8-1.8-40.8-1.8C142.6,195.9,167.1,185.4,167.1,185.4z"/>
	</g>
</g>
<g>
	<g>
		<path class="st0" d="M168.7,219.7c0,0,1.1-9-17.7-18.1c-18.9-9-40.5-5.5-40.5-5.5C143.4,228,168.7,219.7,168.7,219.7z"/>
	</g>
</g>
<g>
	<g>
		<path class="st0" d="M66.3,47.9c0,0-20.8-6.8-40.8-0.8C5.4,53.3,5.2,62.3,5.2,62.3S29,74.3,66.3,47.9z"/>
	</g>
</g>
<g>
	<g>
		<path class="st0" d="M71.1,70.7c0,0-20.9-6.3-40.8,0.1c-19.9,6.5-20,15.6-20,15.6S34.3,97.9,71.1,70.7z"/>
	</g>
</g>
<g>
	<g>
		<path class="st0" d="M78.4,93.2c0,0-21.1-5.7-40.8,1.4s-19.5,16.2-19.5,16.2S42.5,121.5,78.4,93.2z"/>
	</g>
</g>
<g>
	<g>
		<path class="st0" d="M86.8,114.6c0,0-21.6-3.2-40.4,6C27.7,130,28.9,139,28.9,139S54.4,146.9,86.8,114.6z"/>
	</g>
</g>
<g>
	<g>
		<path class="st0" d="M97.8,135.8c0,0-21.6-3.2-40.4,6c-18.8,9.3-17.5,18.3-17.5,18.3S65.3,168,97.8,135.8z"/>
	</g>
</g>
<g>
	<g>
		<path class="st0" d="M109.1,167c0,0-20.7-7.1-40.8-1.4c-20.1,5.8-20.5,14.8-20.5,14.8S71.3,192.8,109.1,167z"/>
	</g>
</g>
<g>
	<g>
		<path class="st0" d="M111,195.5c0,0-20.1-8.6-40.6-4.3s-21.5,13.3-21.5,13.3S71.5,218.6,111,195.5z"/>
	</g>
</g>
<g>
	<g>
		<path class="st0" d="M108.5,206.8c0,0-20.8,6.7-33.5,23.3c-12.7,16.7-7.5,24.2-7.5,24.2S93.7,250.1,108.5,206.8z"/>
	</g>
</g>
<g>
	<path class="st0" d="M103.5,214.4l-1.2-1.6c0.1,0,6.1-4.7,7.9-17.4c3-21.4-8.4-48.5-18.5-67.5C56.3,61.1,62.1,0.6,62.2,0l2,0.2
		C64.1,0.8,58.4,60.7,93.5,127c14.9,28.1,21.2,51.3,18.6,68.9C110.2,209.3,103.8,214.2,103.5,214.4z"/>
</g>
</svg>
