<svg version="1.1" id="Layer_1" xmlns="http://www.w3.org/2000/svg" x="0px" y="0px"
	 viewBox="0 0 200.4 383.6" style="enable-background:new 0 0 200.4 383.6;" xml:space="preserve">
<style type="text/css">
	.st0{fill:#A0DF93;}
</style>
<g>
	<path class="st0" d="M65.1,332.8l-1.2-1.6C78,320,90.1,308.1,96,275.1c3.3-18.7,0.8-41.7-1.9-65.9c-2-17.8-4-36.1-3.5-52.7
		c1.2-38.1,44.5-151.6,45-152.8l1.9,0.7c-0.4,1.1-43.7,114.3-44.8,152.1c-0.5,16.4,1.5,34.7,3.5,52.4c2.7,24.4,5.2,47.5,1.8,66.5
		C92,309.1,79,321.8,65.1,332.8z"/>
</g>
<g>
	<path class="st0" d="M122.3,41.9c0,0-20.9-15.9-45.3-15.9c-24.4,0.1-27.7,11.1-27.7,11.1S71.8,60.5,122.3,41.9z"/>
</g>
<g>
	<path class="st0" d="M194,49.6c0,0-1.4-11.4-25.4-15.6c-24-4.2-47.4,8-47.4,8C167.8,68.8,194,49.6,194,49.6z"/>
</g>
<g>
	<path class="st0" d="M184.9,73.9c0,0-1.4-11.4-25.4-15.6s-47.4,8-47.4,8C158.8,93.2,184.9,73.9,184.9,73.9z"/>
</g>
<g>
	<path class="st0" d="M175.4,107.8c0,0-0.5-11.5-24.2-17.4s-47.8,4.5-47.8,4.5C147.9,125,175.4,107.8,175.4,107.8z"/>
</g>
<g>
	<path class="st0" d="M167.5,140.8c0,0,0.3-11.5-22.9-19.1c-23.2-7.6-48,1.2-48,1.2C138.8,156.1,167.5,140.8,167.5,140.8z"/>
</g>
<g>
	<path class="st0" d="M161.2,168c0,0,0.3-11.5-22.9-19.1s-48,1.2-48,1.2C132.6,183.3,161.2,168,161.2,168z"/>
</g>
<g>
	<path class="st0" d="M161.2,198.6c0,0,0.3-11.5-22.9-19.1s-48,1.2-48,1.2C132.6,213.9,161.2,198.6,161.2,198.6z"/>
</g>
<g>
	<path class="st0" d="M165.2,228.4c0,0-0.5-11.5-24.2-17.4c-23.7-5.9-47.8,4.6-47.8,4.6C137.8,245.6,165.2,228.4,165.2,228.4z"/>
</g>
<g>
	<path class="st0" d="M170.1,264.2c0,0-1.2-11.5-25.2-15.9s-47.5,7.4-47.5,7.4C143.7,283,170.1,264.2,170.1,264.2z"/>
</g>
<g>
	<path class="st0" d="M162.1,304.3c0,0-1.1-11.5-25-16.3s-47.6,6.8-47.6,6.8C135.5,322.8,162.1,304.3,162.1,304.3z"/>
</g>
<g>
	<path class="st0" d="M145.3,343.8c0,0,1.5-11.4-20.8-21.4c-22.3-9.9-47.9-3.8-47.9-3.8C115.3,356.1,145.3,343.8,145.3,343.8z"/>
</g>
<g>
	<path class="st0" d="M114.1,66.3c0,0-22.4-13.9-46.6-11.5S40.9,68.5,40.9,68.5S65.6,89.6,114.1,66.3z"/>
</g>
<g>
	<path class="st0" d="M106,94.9c0,0-22.3-14-46.6-11.7S32.8,96.8,32.8,96.8S57.4,118,106,94.9z"/>
</g>
<g>
	<path class="st0" d="M97.1,123c0,0-23.4-12-47.4-7.5c-24,4.4-25.3,15.9-25.3,15.9S50.8,150.3,97.1,123z"/>
</g>
<g>
	<path class="st0" d="M92.9,150.4c0,0-24.7-9-48-1.7s-23.1,18.8-23.1,18.8S50.3,183.1,92.9,150.4z"/>
</g>
<g>
	<path class="st0" d="M92.9,180.2c0,0-25.5-6.7-48,2.7c-22.5,9.4-21.3,20.9-21.3,20.9S53.5,216.7,92.9,180.2z"/>
</g>
<g>
	<path class="st0" d="M96.7,214.8c0,0-24.9-8.4-48-0.6s-22.7,19.4-22.7,19.4S54.8,248.5,96.7,214.8z"/>
</g>
<g>
	<path class="st0" d="M99.4,255.7c0,0-22.2-14.2-46.5-12.1S26.3,257,26.3,257S50.7,278.4,99.4,255.7z"/>
</g>
<g>
	<path class="st0" d="M93.5,295.1c0,0-19-18.2-43.2-21S21.5,282,21.5,282S41.2,307.8,93.5,295.1z"/>
</g>
<g>
	<path class="st0" d="M79.6,318.6c0,0-21.8-14.7-46.2-13.2c-24.4,1.5-27,12.7-27,12.7S30.3,340.1,79.6,318.6z"/>
</g>
<g>
	<path class="st0" d="M66.8,329.6c0,0-25.9,4.5-42.5,22.4s-10.7,27.9-10.7,27.9S46.1,379.3,66.8,329.6z"/>
</g>
</svg>
