<svg enable-background="new 0 0 138.4 268.5" viewBox="0 0 138.4 268.5" xmlns="http://www.w3.org/2000/svg"><g fill="#42836b"><path d="m83.3 154.8s-19.7.8-33.8 12.5-10.7 19.7-10.7 19.7 24.2 2.6 44.5-32.2z"/><path d="m113.7 198.8c15.9 9 22.2 3 22.2 3s-6-23.6-45.7-30.2c-.9-4.4-2.3-9-4.2-13.8 4.5 5 13.9 14 26.2 17.7 17.5 5.2 22.3-2 22.3-2s-10.9-21.2-50.1-19.3c-1.2-2.6-2.6-5.1-4.2-7.7-1.9-3-3.8-6.3-5.7-9.7.1-.2.3-.4.4-.7 3.8 3.7 15.4 13.8 30 16.4 18 3.2 21.9-4.5 21.9-4.5s-13.6-20.2-53.3-13.2c0 0 .4.5 1.2 1.2-.1 0-.4 0-.7 0-4-7.3-8-15.3-11.6-23.5 2.9 3 15.1 14.3 30.7 17 18 3.2 21.9-4.5 21.9-4.5s-13.5-20.1-52.9-13.2c-2.8-6.4-5.4-12.9-7.6-19.3 3.8 3.6 15.4 13.8 30.1 16.4 18 3.2 21.9-4.5 21.9-4.5s-13.5-19.9-52.6-13.2c-2.6-7.5-4.8-14.9-6.4-21.9 3.3 3.2 15.2 14.1 30.5 16.8 18 3.2 21.9-4.5 21.9-4.5s-13.4-20-52.6-13.3c-1.5-6.9-2.5-13.4-2.7-19.2 4.2 4 15.5 13.5 29.6 16 18 3.2 21.9-4.5 21.9-4.5s-13.2-19.7-51.6-13.5c0-.2 0-.4 0-.6.1-26.3 1.5-44.3 1.5-44.5l-1-.1c0 .2-1.4 18.2-1.5 44.6v.7c-3.5.6-20.3 4.1-31.7 15.7-12.8 13.1-8.6 20.7-8.6 20.7s23.7.2 40.4-35.1c.2 5.9 1.1 12.5 2.6 19.6-3.1.5-20.3 3.9-31.9 15.8-12.8 13-8.6 20.6-8.6 20.6s24 .2 40.7-35.7c1.7 7.5 4 15.4 6.8 23.4-4.2.8-20.3 4.4-31.3 15.7-12.8 13-8.6 20.6-8.6 20.6s23.7.2 40.4-35.1c2.3 6.5 4.9 13 7.7 19.3-2.5.4-20.2 3.7-32 15.8-12.8 13-8.6 20.6-8.6 20.6s24.2.2 40.8-36.1c3.6 8.2 7.5 16.1 11.5 23.4-5.3.5-20.4 2.9-31.8 12.3-14.1 11.7-10.7 19.7-10.7 19.7s23.4 2.6 43.4-30.3c1.8 3.2 3.6 6.3 5.4 9.2 1.5 2.4 2.8 4.8 4 7.2-.1 0-.2 0-.2 0s.2.3.7.9c2.8 5.9 4.5 11.8 5.6 17.2-3.4.2-20.6 2-33.2 12.4-14.1 11.7-10.7 19.6-10.7 19.6s23.8 2.7 44-31.3c1.1 5.8 1.4 11.2 1.3 15.8-3.3 1.3-19.1 7.9-28.1 21.5-10.1 15.3-4.5 21.9-4.5 21.9s22.8-4.2 32.5-40.9c-.4 7.5-1.7 12.2-1.7 12.4l.5.2c0 .1-8.6 23.9-8.6 33.7s7.1 28.9 7.1 28.9 9.6-21.4 9.6-38.2c0-16.7-7.9-24.4-8-24.5l.4.1c0-.1 1.6-5.8 1.8-14.5 1.1 5.9 4.5 19.9 14.2 30.1 12.6 13.3 20.3 9.4 20.3 9.4s1.1-24.1-34.5-42.1c0-4.4-.4-9.5-1.5-14.9 1.1 2.7 8.8 18.5 23.3 26.6z"/></g></svg>